<svg xmlns="http://www.w3.org/2000/svg" viewBox="0 0 1024.87 603.16">
  <g id="f8e6a1aa-1b9a-4613-b987-13a70fb49463" data-name="Layer 2">
    <g id="a9c5d507-9403-4a81-b138-469fdc7c0042" data-name="Layer 1">
      <g>
        <circle style="fill: #fff"/>
        <circle cx="1024.87" style="fill: #fff"/>
      </g>
      <g>
        <circle cy="603.16" style="fill: #fff"/>
        <circle cx="1024.87" cy="603.16" style="fill: #fff"/>
      </g>
      <g>
        <g>
          <path d="M44.73,36.75v37.5H42.51V36.75H34V34.47H53.29v2.28Z"/>
          <path d="M99.4,74.25V53.52H78.13V74.25H76V34.47h2.17V51.24H99.4V34.47h2.22V74.25Z"/>
          <path d="M124.78,74.25V34.47h18.56v2.28H127V51.24h16.34v2.45H127V72h16.34v2.29Z"/>
        </g>
        <g>
          <path d="M169.65,572.16v-37h17.68v2.12H171.76v13.48h15.57V553H171.76v17h15.57v2.12Z"/>
          <path d="M256.2,571.85a13.87,13.87,0,0,1-4.75.73q-8.44,0-10.87-8l2.11-.72q1.8,6.63,8.76,6.63a9.16,9.16,0,0,0,6.24-2,7.38,7.38,0,0,0,2.32-5.9,7.84,7.84,0,0,0-2.73-6.12,11.32,11.32,0,0,0-2.22-1.5c-1-.56-2.27-1.18-3.81-1.87a24.36,24.36,0,0,1-6-3.42,8.39,8.39,0,0,1,0-12.34,9.58,9.58,0,0,1,6.6-2.38q6.5,0,9.17,4.87l-2,.88a7.09,7.09,0,0,0-2.47-2.54,8.66,8.66,0,0,0-4.69-1.14,7.52,7.52,0,0,0-5,1.71,6.06,6.06,0,0,0,.1,9.38,27.06,27.06,0,0,0,5.15,2.8,41,41,0,0,1,4.18,2.15,15,15,0,0,1,2.83,2.15,9.92,9.92,0,0,1,3,7.37C262.12,567.27,260.15,570.37,256.2,571.85Z"/>
          <path d="M334.44,571.85a13.81,13.81,0,0,1-4.74.73q-8.46,0-10.88-8l2.12-.72q1.8,6.63,8.76,6.63a9.16,9.16,0,0,0,6.24-2,7.41,7.41,0,0,0,2.32-5.9,7.84,7.84,0,0,0-2.73-6.12,11.63,11.63,0,0,0-2.22-1.5c-1-.56-2.27-1.18-3.82-1.87a24.24,24.24,0,0,1-6-3.42,8.39,8.39,0,0,1,.05-12.34,9.54,9.54,0,0,1,6.6-2.38q6.48,0,9.17,4.87l-2,.88a7.09,7.09,0,0,0-2.47-2.54,8.69,8.69,0,0,0-4.69-1.14,7.54,7.54,0,0,0-5.06,1.71,6.07,6.07,0,0,0,.11,9.38,26.73,26.73,0,0,0,5.15,2.8,41,41,0,0,1,4.18,2.15,15.33,15.33,0,0,1,2.83,2.15,10,10,0,0,1,3,7.37C340.37,567.27,338.39,570.37,334.44,571.85Z"/>
          <path d="M398.67,572.16v-37h17.68v2.12H400.78v13.48h15.57V553H400.78v17h15.57v2.12Z"/>
          <path d="M474.34,540.75v31.41h-2.06V534.9l27.47,32.39V535.16h2.12v37.63Z"/>
          <path d="M567.74,537.28v34.88h-2.11V537.28h-8.14v-2.12h18.4v2.12Z"/>
          <path d="M631.51,572.16v-37h2.06v37Z"/>
          <path d="M717.9,572.16l-4.23-11.09H696.92l-4.28,11.09h-2.06L705.27,534,720,572.16Zm-12.63-32.81L697.75,559h15Z"/>
          <path d="M774.7,572.16v-37h2.07V570h10.36v2.12Z"/>
          <path d="M857.49,571.85a13.81,13.81,0,0,1-4.74.73q-8.46,0-10.88-8l2.11-.72q1.82,6.63,8.77,6.63a9.15,9.15,0,0,0,6.23-2,7.38,7.38,0,0,0,2.32-5.9,7.84,7.84,0,0,0-2.73-6.12,11.32,11.32,0,0,0-2.22-1.5c-1-.56-2.26-1.18-3.81-1.87a24.56,24.56,0,0,1-6-3.42,8.39,8.39,0,0,1,.05-12.34,9.58,9.58,0,0,1,6.6-2.38q6.49,0,9.18,4.87l-2,.88a7.12,7.12,0,0,0-2.48-2.54,8.66,8.66,0,0,0-4.69-1.14,7.52,7.52,0,0,0-5.05,1.71,6.06,6.06,0,0,0,.1,9.38,26.91,26.91,0,0,0,5.16,2.8,41.79,41.79,0,0,1,4.17,2.15,15.1,15.1,0,0,1,2.84,2.15,10,10,0,0,1,3,7.37C863.42,567.27,861.44,570.37,857.49,571.85Z"/>
        </g>
        <g>
          <path d="M989.92,422.83v8.86c0,28.79-23.65,55.93-44.54,55.93H798.54c-2.75,0-3.85-1.11-3.85-3.88V276.64c0-2.77,1.65-3.88,3.85-3.88h84.14c21.45,0,42.35,11.08,42.35,33.78v3.88h4.4V230.68H925v1.66c0,23.26-20.35,36-42.35,36H798.54c-2.75,0-3.85-1.1-3.85-3.87V116.06c0-2.77,1.65-3.88,3.85-3.88H914c36.84,0,53.34,24.36,53.34,51.5v8.86h4.4V107.75H733.65c-2.75,0-2.75,4.43,0,4.43h25.84c2.75,0,3.85,1.11,3.85,3.88V483.74a3.75,3.75,0,0,1-3.85,3.88H733.65c-2.2,0-2.2,4.43,0,4.43H994.32V422.83Z"/>
          <path d="M713.61,487.87c-2.2,1.11-4.94,3.32-9.88,2.77-11-1.11-34-58.58-58.68-113.84-25.23-46.42-55.39-78.48-89.94-89.53C611.6,283.4,666.44,253,666.44,194.43c0-61.89-66.36-87.86-122.3-87.86H443.77a2.22,2.22,0,1,0,0,4.41h19.29c3.86,0,5.51,1.65,5.51,5.51V354.75c0,104.79-50.14,137.33-118.47,137.33-56.2,0-108.55-20.4-108.55-135.12V288.39c35.93-17.4,62.34-48.86,62.34-94.13,0-39.93-21.87-67-51.93-83.28-2.89-1.57-5.87-3-8.9-4.41-23.15-10.49-50-15.31-75.14-15.31H33.07c-3.36,0-3.36,4.43,0,4.43H57.69c3.91,0,5.59,1.66,5.59,5.54V465.59c0,3.88-1.68,5.54-5.59,5.54H33.07c-3.36,0-2.8,4.43,0,4.43h93.44c2.24,0,2.24-4.43,0-4.43H100.77c-3.92,0-5.59-1.66-5.59-5.54V304.45h73.3a178.24,178.24,0,0,0,41.66-4.92V352c0,108.1,62.82,144.5,140,144.5,72.74,0,123.43-37.51,123.43-141.75V116.49c0-3.8,1.62-5.46,5.36-5.5h65.25c46.07,0,91,20.44,91,83.44,0,63.55-41.13,87.87-91,88.42H477.31v4.42h58.05c30.17,4.42,54.3,36.48,80.07,99.47C657.12,473,679.6,494.5,703.19,494.5c3.84,0,6-.55,9.87-2.76C716.35,489.53,715.8,486.77,713.61,487.87ZM168.48,300H95.18V101.23c0-3.88,1.67-5.54,5.59-5.54h67.15c19,0,37.89,3.19,54.18,10.88a83.92,83.92,0,0,1,19.45,12.58c17.75,15.42,29.33,39.47,29.33,75.11,0,37-11.25,63.09-29.33,80.08a88.74,88.74,0,0,1-31.41,18.8A128.11,128.11,0,0,1,168.48,300Z"/>
        </g>
      </g>
    </g>
  </g>
</svg>
