<svg xmlns="http://www.w3.org/2000/svg" viewBox="0 0 963.77 538.32">
  <g id="fb22754a-956c-467f-bfa6-636ac52b2338" data-name="Layer 2">
    <g id="eca11511-2aa5-4181-91f5-78ea3d03f003" data-name="Layer 1">
      <g id="ee447407-8d7e-4926-b20a-700563520e95" data-name="f8e6a1aa-1b9a-4613-b987-13a70fb49463">
        <g id="bab03ad5-7dee-45a8-ae0a-461684bc0f4c" data-name="a9c5d507-9403-4a81-b138-469fdc7c0042">
          <g>
            <g>
              <path d="M14.18,2.28v37.5H12V2.28H3.45V0H22.74V2.28Z" style="fill: #fff"/>
              <path d="M68.85,39.78V19.05H47.58V39.78H45.45V0h2.17V16.77H68.85V0h2.22V39.78Z" style="fill: #fff"/>
              <path d="M94.23,39.78V0h18.56V2.28H96.45V16.77h16.34v2.45H96.45V37.53h16.34v2.29Z" style="fill: #fff"/>
            </g>
            <g>
              <path d="M139.1,537.69v-37h17.68v2.12H141.21v13.48h15.57v2.24H141.21v17h15.57v2.12Z" style="fill: #fff"/>
              <path d="M225.65,537.38a14,14,0,0,1-4.75.73q-8.44,0-10.87-8l2.11-.72q1.8,6.63,8.76,6.63a9.14,9.14,0,0,0,6.24-2,7.4,7.4,0,0,0,2.32-5.9,7.84,7.84,0,0,0-2.73-6.12,11.1,11.1,0,0,0-2.22-1.5c-1-.56-2.27-1.18-3.81-1.87a24.44,24.44,0,0,1-6-3.42,8.39,8.39,0,0,1-.48-11.86c.15-.16.31-.33.48-.48a9.58,9.58,0,0,1,6.6-2.38q6.49,0,9.17,4.87l-2,.88A7.07,7.07,0,0,0,226,503.7a8.64,8.64,0,0,0-4.69-1.14,7.51,7.51,0,0,0-5,1.71,6.06,6.06,0,0,0-.76,8.54,6.2,6.2,0,0,0,.86.84,26.76,26.76,0,0,0,5.15,2.8,41.21,41.21,0,0,1,4.18,2.15,14.47,14.47,0,0,1,2.83,2.15,9.94,9.94,0,0,1,3,7.37C231.57,532.8,229.6,535.9,225.65,537.38Z" style="fill: #fff"/>
              <path d="M303.89,537.38a13.9,13.9,0,0,1-4.74.73q-8.46,0-10.88-8l2.12-.72q1.8,6.63,8.76,6.63a9.14,9.14,0,0,0,6.24-2,7.41,7.41,0,0,0,2.32-5.9A7.84,7.84,0,0,0,305,522a11.54,11.54,0,0,0-2.22-1.5c-1-.56-2.27-1.18-3.82-1.87a24.44,24.44,0,0,1-6-3.42,8.4,8.4,0,0,1-.44-11.86c.16-.16.32-.33.49-.48a9.58,9.58,0,0,1,6.6-2.38q6.48,0,9.17,4.87l-2,.88a7.07,7.07,0,0,0-2.47-2.54,8.64,8.64,0,0,0-4.69-1.14,7.51,7.51,0,0,0-5.06,1.71,6.07,6.07,0,0,0,.11,9.38,26.76,26.76,0,0,0,5.15,2.8A41.21,41.21,0,0,1,304,518.6a15.53,15.53,0,0,1,2.83,2.15,10,10,0,0,1,3,7.37C309.82,532.8,307.84,535.9,303.89,537.38Z" style="fill: #fff"/>
              <path d="M368.12,537.69v-37H385.8v2.12H370.23v13.48H385.8v2.24H370.23v17H385.8v2.12Z" style="fill: #fff"/>
              <path d="M443.79,506.28v31.41h-2.06V500.43l27.47,32.39V500.69h2.12v37.63Z" style="fill: #fff"/>
              <path d="M537.19,502.81v34.88h-2.11V502.81h-8.14v-2.12h18.4v2.12Z" style="fill: #fff"/>
              <path d="M601,537.69v-37H603v37Z" style="fill: #fff"/>
              <path d="M687.35,537.69l-4.23-11.09H666.37l-4.28,11.09H660l14.69-38.16,14.73,38.16Zm-12.63-32.81-7.52,19.65h15Z" style="fill: #fff"/>
              <path d="M744.15,537.69v-37h2.07v34.84h10.36v2.12Z" style="fill: #fff"/>
              <path d="M826.94,537.38a13.9,13.9,0,0,1-4.74.73q-8.46,0-10.88-8l2.11-.72q1.82,6.63,8.77,6.63a9.18,9.18,0,0,0,6.23-2,7.4,7.4,0,0,0,2.32-5.9A7.84,7.84,0,0,0,828,522a11.1,11.1,0,0,0-2.22-1.5c-1-.56-2.26-1.18-3.81-1.87a24.44,24.44,0,0,1-6-3.42,8.4,8.4,0,0,1-.44-11.86c.16-.16.32-.33.49-.48a9.58,9.58,0,0,1,6.6-2.38q6.5,0,9.18,4.87l-2,.88a7.1,7.1,0,0,0-2.48-2.54,8.64,8.64,0,0,0-4.69-1.14,7.48,7.48,0,0,0-5,1.71,6.06,6.06,0,0,0-.76,8.54,6.2,6.2,0,0,0,.86.84,26.54,26.54,0,0,0,5.16,2.8A43.2,43.2,0,0,1,827,518.6a14.84,14.84,0,0,1,2.84,2.15,10,10,0,0,1,3,7.37C832.87,532.8,830.89,535.9,826.94,537.38Z" style="fill: #fff"/>
            </g>
            <g>
              <path d="M959.37,388.36v8.86c0,28.79-23.65,55.93-44.54,55.93H768c-2.75,0-3.85-1.11-3.85-3.88V242.17c0-2.77,1.65-3.88,3.85-3.88h84.14c21.45,0,42.35,11.08,42.35,33.78V276h4.4V196.21h-4.43v1.66c0,23.26-20.35,36-42.35,36H768c-2.75,0-3.85-1.1-3.85-3.87V81.59c0-2.77,1.65-3.88,3.85-3.88H883.45c36.84,0,53.34,24.36,53.34,51.5v8.86h4.4V73.28H703.1c-2.75,0-2.75,4.43,0,4.43h25.84c2.75,0,3.85,1.11,3.85,3.88V449.27a3.75,3.75,0,0,1-3.62,3.88H703.1c-2.2,0-2.2,4.43,0,4.43H963.77V388.36Z" style="fill: #fff"/>
              <path d="M683.06,453.4c-2.2,1.11-4.94,3.32-9.88,2.77-11-1.11-34-58.58-58.68-113.84-25.23-46.42-55.39-78.48-89.94-89.53,56.49-3.87,111.33-34.27,111.33-92.84,0-61.89-66.36-87.86-122.3-87.86H413.22a2.22,2.22,0,0,0-.52,4.41,2.26,2.26,0,0,0,.52,0h19.29c3.86,0,5.51,1.65,5.51,5.51V320.28c0,104.79-50.14,137.33-118.47,137.33-56.2,0-108.55-20.4-108.55-135.12V253.92c35.93-17.4,62.34-48.86,62.34-94.13,0-39.93-21.87-67-51.93-83.28-2.89-1.57-5.87-3-8.9-4.41-23.15-10.49-50-15.31-75.14-15.31H2.52c-3.36,0-3.36,4.43,0,4.43H27.14c3.91,0,5.59,1.66,5.59,5.54V431.12c0,3.88-1.68,5.54-5.59,5.54H2.52c-3.36,0-2.8,4.43,0,4.43H96c2.24,0,2.24-4.43,0-4.43H70.22c-3.92,0-5.59-1.66-5.59-5.54V270h73.3a178.21,178.21,0,0,0,41.66-4.92v52.47c0,108.1,62.82,144.5,140,144.5C392.33,462,443,424.52,443,320.28V82c0-3.8,1.62-5.46,5.36-5.5h65.25c46.07,0,91,20.44,91,83.44,0,63.55-41.13,87.87-91,88.42H446.76v4.42h58.05c30.17,4.42,54.3,36.48,80.07,99.47C626.57,438.53,649.05,460,672.64,460c3.84,0,6-.55,9.87-2.76C685.8,455.06,685.25,452.3,683.06,453.4ZM137.93,265.53H64.63V66.76c0-3.88,1.67-5.54,5.59-5.54h67.15c19,0,37.89,3.19,54.18,10.88A83.92,83.92,0,0,1,211,84.68c17.75,15.42,29.33,39.47,29.33,75.11,0,37-11.25,63.09-29.33,80.08a88.86,88.86,0,0,1-31.41,18.8A128.32,128.32,0,0,1,137.93,265.53Z" style="fill: #fff"/>
            </g>
          </g>
        </g>
      </g>
    </g>
  </g>
</svg>
