<svg xmlns="http://www.w3.org/2000/svg" xmlns:xlink="http://www.w3.org/1999/xlink" viewBox="0 0 227.34 152.18">
  <defs>
    <clipPath id="be39532e-ca4f-4b2f-986c-9087dc80b1d6" transform="translate(0 -6.25)">
      <path d="M113.42,56.53c5.57,0,11-.13,16.33-.38.21-.41.41-.82.58-1.25,1.31-3.21,1.39-6.78,1.46-10.25a129.86,129.86,0,0,0-.63-19.43A43.25,43.25,0,0,0,124.86,7C123,4.22,120.65,1.64,117.52.52s-7.07-.43-9,2.29C107,5,107.1,7.87,107,10.53a47.53,47.53,0,0,1-5,19.6c-2.52,5-5.92,9.55-8,14.73a21.89,21.89,0,0,0-1.63,11C99.09,56.31,106.17,56.53,113.42,56.53Z" style="fill: none"/>
    </clipPath>
    <clipPath id="ed5dc86d-0d71-4cc4-9e6c-a83ff4397606" transform="translate(0 -6.25)">
      <path d="M113.42,58.93c-6.88,0-13.54-.2-19.85-.56H92.18V85.45h37.49V58.55C124.45,58.8,119,58.93,113.42,58.93Z" style="fill: none"/>
    </clipPath>
  </defs>
  <g style="isolation: isolate">
    <g id="e89422cc-bca7-4dde-b0ed-800184f223d7" data-name="Layer 2">
      <g id="ae2f890d-d6b7-4161-b26e-cee985a5a503" data-name="OBJECTS">
        <g>
          <g>
            <path d="M154.05,124.37a61.3,61.3,0,0,1,73.29-60.71C223.84,79.78,214.47,95,202.16,106S170.46,122.75,154.05,124.37Z" transform="translate(0 -6.25)" style="fill: #89a800"/>
            <path d="M202.7,81.32c2.55-.56,5.06-1.27,7.56-2a90.06,90.06,0,0,0,9.23-3.35A87.73,87.73,0,0,0,210,78.37c-2.11.66-4.2,1.36-6.26,2.15,7-5.54,14-11,21.16-16.44C218,68,211.46,72.38,205,76.92c.81-1.3,1.58-2.64,2.31-4a60.1,60.1,0,0,0,3.43-7.36,59.5,59.5,0,0,0-4.27,6.91c-.91,1.7-1.78,3.43-2.55,5.21l-2.45,1.73q-5,3.63-10,7.32l1.22-2.33c1-2,2-4.07,3-6.12s1.92-4.12,2.81-6.21,1.79-4.18,2.58-6.32c-1.15,2-2.2,4-3.25,6s-2,4.07-3,6.12S193,82,192.07,84.09l-1.33,3.14-.06.13q-5.82,4.36-11.55,8.88l-1.84,1.51c.19-.4.37-.81.57-1.22l1.68-3.74,3.32-7.49,3.27-7.51c1.07-2.51,2.16-5,3.18-7.57-1.38,2.38-2.63,4.81-3.85,7.26s-2.36,4.94-3.47,7.44-2.16,5-3.13,7.59l-1.44,3.84c-.2.61-.41,1.2-.62,1.8-2.83,2.35-5.62,4.75-8.32,7.27-.81.77-1.62,1.55-2.42,2.34l.62-1.89c.43-1.33.87-2.66,1.32-4,.92-2.64,1.83-5.28,2.81-7.89s2-5.22,3-7.81S176,81,177.07,78.43c-1.44,2.42-2.71,4.92-3.9,7.46s-2.26,5.14-3.25,7.77-1.87,5.3-2.62,8c-.37,1.35-.73,2.71-1.07,4.07l-.51,2.36c-2.42,2.41-4.77,4.89-6.95,7.53-6,7.2-11.09,15.36-14,24.27a91.84,91.84,0,0,1,15.64-22.79q3.84-4.14,8-8l2.68-.31,4.27-.58c2.84-.4,5.66-.86,8.49-1.33s5.65-1,8.46-1.55,5.63-1.12,8.42-1.8c-2.86.29-5.7.67-8.54,1.08s-5.67.86-8.5,1.32-5.65,1-8.46,1.55l-4.21.85-2.32.51c.53-.48,1-1,1.59-1.44,2.77-2.5,5.63-4.9,8.53-7.25l2.66-.19c1.26-.14,2.51-.29,3.77-.45,2.5-.32,5-.78,7.47-1.29s4.92-1.13,7.35-1.85,4.83-1.48,7.18-2.41l-7.37,1.7c-2.45.55-4.9,1.11-7.36,1.62s-4.93,1-7.39,1.5L179.11,100c.61-.49,1.21-1,1.83-1.49,3-2.46,6.09-4.85,9.17-7.25l2.45-.31,3.44-.59c2.29-.4,4.55-.92,6.81-1.46s4.5-1.16,6.71-1.87,4.42-1.42,6.58-2.29c-2.27.49-4.52,1-6.77,1.59L202.58,88l-6.74,1.67-3.37.84-2.06.55,1.47-1.15Z" transform="translate(0 -6.25)" style="fill: #688000"/>
          </g>
          <g>
            <path d="M75.33,133.74a52.72,52.72,0,0,0-30.86-32.22A52.7,52.7,0,0,0,0,105.17c7.21,12,18.89,21.6,31.76,27S61.73,136.94,75.33,133.74Z" transform="translate(0 -6.25)" style="fill: #6e8700"/>
            <path d="M24.57,112.58c-2.2.24-4.4.36-6.61.44a74.35,74.35,0,0,1-8.31-.16,74.46,74.46,0,0,1,8.28-.65c1.87,0,3.74-.06,5.61,0-7.13-2.51-14.26-5-21.46-7.38,6.56,1.28,13,3,19.43,4.86-1-.83-2-1.69-3-2.57a51.69,51.69,0,0,1-4.75-5,49.31,49.31,0,0,1,5.3,4.36c1.2,1.12,2.37,2.26,3.48,3.48l2.43.71q5,1.53,10,3.14l-1.62-1.54c-1.39-1.33-2.74-2.7-4.09-4.07s-2.66-2.78-3.95-4.21-2.58-2.86-3.8-4.36c1.46,1.27,2.86,2.59,4.25,3.93s2.74,2.7,4.09,4.07,2.66,2.78,4,4.21L35.77,114l.08.09q5.85,1.89,11.68,4l1.89.7-.78-.82-2.38-2.53-4.71-5.09-4.67-5.13c-1.55-1.72-3.11-3.43-4.62-5.19,1.75,1.52,3.42,3.13,5.07,4.76s3.24,3.31,4.82,5,3.1,3.44,4.58,5.22l2.21,2.69,1,1.27c2.91,1.1,5.8,2.27,8.65,3.54.87.4,1.73.8,2.58,1.22l-1-1.35c-.71-.95-1.42-1.89-2.15-2.83-1.45-1.86-2.91-3.72-4.41-5.55s-3-3.63-4.56-5.43-3.13-3.54-4.71-5.32a70.45,70.45,0,0,1,5.17,4.91c1.65,1.7,3.22,3.49,4.73,5.33s2.95,3.73,4.29,5.69c.67,1,1.32,2,2,3l1.05,1.75A86.42,86.42,0,0,1,69.15,128,61.81,61.81,0,0,1,87,143.66a77.89,77.89,0,0,0-18.77-14c-2.8-1.52-5.67-2.92-8.58-4.21l-2.24.48-3.57.7c-2.38.46-4.78.87-7.17,1.26s-4.79.76-7.2,1.08-4.81.64-7.23.86c2.36-.55,4.75-1,7.13-1.47s4.78-.87,7.17-1.27,4.79-.76,7.2-1.08l3.61-.47,2-.22c-.55-.24-1.1-.49-1.66-.72-2.91-1.24-5.85-2.38-8.82-3.47-.73.2-1.46.38-2.19.57-1,.24-2.09.46-3.13.68-2.1.42-4.22.74-6.34,1s-4.26.45-6.39.54-4.28.13-6.42,0l6.37-.65c2.11-.24,4.23-.46,6.34-.72s4.22-.54,6.33-.82l5.18-.73c-.63-.22-1.25-.47-1.88-.69-3.08-1.14-6.21-2.21-9.33-3.29l-2,.42-2.91.47c-1.95.3-3.9.51-5.86.69s-3.92.3-5.89.34-3.93.07-5.89,0c1.95-.23,3.9-.4,5.86-.59l5.85-.53,5.86-.5,2.93-.25,1.79-.13-1.49-.51Z" transform="translate(0 -6.25)" style="fill: #4d5f00"/>
          </g>
          <g>
            <path d="M41.08,44.27v99.5c0,8.1,32.39,14.66,72.34,14.66s72.34-6.56,72.34-14.66V44.27Z" transform="translate(0 -6.25)" style="fill: #614836"/>
            <path d="M50.48,75.86V109.7A23.59,23.59,0,0,0,70.39,133a281,281,0,0,0,42.83,3A281,281,0,0,0,156,133,23.59,23.59,0,0,0,176,109.7V75.86Z" transform="translate(0 -6.25)" style="fill: #6e513d"/>
            <ellipse cx="113.42" cy="69.6" rx="62.73" ry="12.71" style="fill: #7a5a44"/>
            <g>
              <path d="M67.62,155.12V44.27H60.25V153.71C62.54,154.21,65,154.69,67.62,155.12Z" transform="translate(0 -6.25)" style="fill: #fff;opacity: 0.1"/>
              <path d="M71.12,44.27V155.66q3.55.53,7.43,1a3.93,3.93,0,0,1-.06-.59V44.27Z" transform="translate(0 -6.25)" style="fill: #fff;opacity: 0.1"/>
            </g>
            <path d="M113.42,158.43c40,0,72.34-6.56,72.34-14.66V44.27H151.48c-2.85,2-5.65,4.15-8.42,6.26l8-2.1A108.5,108.5,0,0,1,94.17,157.9C100.3,158.25,106.75,158.43,113.42,158.43Z" transform="translate(0 -6.25)" style="mix-blend-mode: multiply;opacity: 0.1"/>
            <ellipse cx="113.42" cy="38.02" rx="72.34" ry="14.66" style="fill: #5e4635"/>
            <path d="M133.27,58.37c30.3-1.75,52.49-7.4,52.49-14.1s-22.52-12.43-53.17-14.13A79.18,79.18,0,0,1,133.27,58.37Z" transform="translate(0 -6.25)" style="mix-blend-mode: multiply;opacity: 0.1"/>
            <path d="M113.42,29.62c-39.95,0-72.34,6.56-72.34,14.65s32.39,14.66,72.34,14.66,72.34-6.56,72.34-14.66S153.38,29.62,113.42,29.62ZM164.1,52.28c-13.51,2.74-31.51,4.25-50.68,4.25S76.26,55,62.75,52.28c-15.81-3.2-19.27-6.86-19.27-8s3.46-4.81,19.27-8C76.26,33.53,94.25,32,113.42,32s37.17,1.51,50.68,4.24c15.8,3.2,19.26,6.87,19.26,8S179.9,49.08,164.1,52.28Z" transform="translate(0 -6.25)" style="fill: #9e765a"/>
            <g style="clip-path: url(#be39532e-ca4f-4b2f-986c-9087dc80b1d6)">
              <g>
                <path d="M110.72,75.86a1.56,1.56,0,0,1-1.53-1.28,67.82,67.82,0,0,1-.85-17.13,1.55,1.55,0,0,1,3.09.23A64.91,64.91,0,0,0,112.25,74a1.55,1.55,0,0,1-1.26,1.8A1.24,1.24,0,0,1,110.72,75.86Z" transform="translate(0 -6.25)" style="fill: #fff"/>
                <path d="M109.69,69.36A15.66,15.66,0,0,1,97,47.81C99.2,42.6,104,39,107.09,34.27c5.37-8,5.55-18.37,5-28,2.08,3,4.56,6.77,6.65,9.8a5.38,5.38,0,0,1,.66-3.88c3.3,6.5,6.14,13.31,7.44,20.49s1,14.78-1.87,21.49S116.93,70.2,109.69,69.36Z" transform="translate(0 -6.25)" style="fill: #ff7f14"/>
                <path d="M104.15,49.57c-1.89,3.34-3.22,7.71-1,10.84a7.09,7.09,0,0,0,5.31,2.77,11.64,11.64,0,0,0,6-1.39,20.77,20.77,0,0,0,9.89-11.73,32,32,0,0,0,1.07-15.53,6.47,6.47,0,0,1-2.4,4.14,28,28,0,0,0-7-12.45c-.62,3.4-.37,8.24-2.46,11.1C110.48,41.52,106.74,45,104.15,49.57Z" transform="translate(0 -6.25)" style="fill: #ffcb60"/>
              </g>
            </g>
            <g style="opacity: 0.35000000000000003">
              <g style="clip-path: url(#ed5dc86d-0d71-4cc4-9e6c-a83ff4397606)">
                <g>
                  <path d="M110.72,75.86a1.56,1.56,0,0,1-1.53-1.28,67.82,67.82,0,0,1-.85-17.13,1.55,1.55,0,0,1,3.09.23A64.91,64.91,0,0,0,112.25,74a1.55,1.55,0,0,1-1.26,1.8A1.24,1.24,0,0,1,110.72,75.86Z" transform="translate(0 -6.25)" style="fill: #fff"/>
                  <path d="M109.69,69.36A15.66,15.66,0,0,1,97,47.81C99.2,42.6,104,39,107.09,34.27c5.37-8,5.55-18.37,5-28,2.08,3,4.56,6.77,6.65,9.8a5.38,5.38,0,0,1,.66-3.88c3.3,6.5,6.14,13.31,7.44,20.49s1,14.78-1.87,21.49S116.93,70.2,109.69,69.36Z" transform="translate(0 -6.25)" style="fill: #ff7f14"/>
                  <path d="M104.15,49.57c-1.89,3.34-3.22,7.71-1,10.84a7.09,7.09,0,0,0,5.31,2.77,11.64,11.64,0,0,0,6-1.39,20.77,20.77,0,0,0,9.89-11.73,32,32,0,0,0,1.07-15.53,6.47,6.47,0,0,1-2.4,4.14,28,28,0,0,0-7-12.45c-.62,3.4-.37,8.24-2.46,11.1C110.48,41.52,106.74,45,104.15,49.57Z" transform="translate(0 -6.25)" style="fill: #ffcb60"/>
                </g>
              </g>
            </g>
          </g>
        </g>
      </g>
    </g>
  </g>
</svg>
